<?xml version="1.0" encoding="UTF-8" standalone="no"?>
<!DOCTYPE svg PUBLIC "-//W3C//DTD SVG 1.1//EN" "http://www.w3.org/Graphics/SVG/1.1/DTD/svg11.dtd">
<svg width="100%" height="100%" viewBox="0 0 342 166" version="1.1" xmlns="http://www.w3.org/2000/svg" xmlns:xlink="http://www.w3.org/1999/xlink" xml:space="preserve" xmlns:serif="http://www.serif.com/" style="fill-rule:evenodd;clip-rule:evenodd;stroke-linejoin:round;stroke-miterlimit:2;">
    <g transform="matrix(3.37155,0,0,3.37152,-1098.28,-1330.83)">
        <path d="M348,439.85C347.994,439.766 347.991,439.681 347.991,439.597C347.991,437.54 349.684,435.847 351.741,435.847C351.791,435.847 351.841,435.848 351.89,435.85C353.515,435.712 355.017,436.78 355.42,438.36L354.42,438.36C354.018,437.309 352.974,436.634 351.85,436.7C350.195,436.831 348.903,438.23 348.903,439.89C348.903,441.55 350.195,442.949 351.85,443.08C351.93,443.088 352.01,443.091 352.091,443.091C353.469,443.091 354.613,441.978 354.65,440.6L354.73,440.6L351.21,440.6L351.21,439.84L355.55,439.84C355.561,440.026 355.561,440.214 355.55,440.4C355.551,440.438 355.552,440.476 355.552,440.513C355.552,442.4 353.999,443.953 352.112,443.953C352.011,443.953 351.91,443.949 351.81,443.94C351.743,443.944 351.677,443.945 351.61,443.945C349.564,443.945 347.88,442.262 347.88,440.215C347.88,440.123 347.883,440.032 347.89,439.94M356.98,436.01L362.47,436.01L362.47,436.85L358,436.85L358,439.52L362.24,439.52L362.24,440.32L358,440.32L358,443L362.57,443L362.57,443.84L357.08,443.84L356.98,436.01ZM395.26,436.01L395.26,443.84L394.26,443.84L389.86,437.42L389.86,443.84L389,443.84L389,436.01L390,436.01L394.4,442.39L394.4,436.01L395.26,436.01ZM402.83,436.01L400.06,440L400.06,443.7L399.14,443.7L399.14,440L396.25,435.87L397.32,435.87L399.61,439.32L401.89,435.87L402.83,436.01ZM371.38,436.01L372.44,436.01L375.44,440.73L378.38,436.01L379.38,436.01L379.38,443.84L378.46,443.84L378.46,437.36L375.61,441.92L375.17,441.92L372.28,437.36L372.28,443.84L371.36,443.84L371.38,436.01ZM367.51,440.62C367.596,440.63 367.683,440.635 367.77,440.635C369.021,440.635 370.05,439.606 370.05,438.355C370.05,438.34 370.05,438.325 370.05,438.31C370.048,437.038 369.002,435.993 367.73,435.993C367.636,435.993 367.543,435.999 367.45,436.01L364,436.01L364,443.84L365,443.84L365,436.84L367.49,436.84C368.49,436.84 369.21,437.38 369.21,438.34C369.21,438.355 369.211,438.371 369.211,438.386C369.211,439.209 368.534,439.886 367.711,439.886C367.637,439.886 367.563,439.881 367.49,439.87L365.87,439.87L369.25,443.87L370.41,443.87L367.51,440.62ZM384.66,436.01L383.57,436.01L380.48,443.84L381.48,443.84L381.93,442.65L382.93,440.08L384.14,436.91L385.75,441.13L383.4,441.13L383.53,441.89L386.03,441.89L386.78,443.83L387.78,443.83L384.66,436.01ZM338.84,417.16L342.39,417.16L342.39,426C342.39,427.371 343.519,428.5 344.89,428.5C346.261,428.5 347.39,427.371 347.39,426L347.39,417.1L351,417.1L351,426.1C351,429.42 348.81,431.57 345,431.57C341.35,431.57 339,429.57 339,426.1L338.84,417.16ZM405.02,424.31C405.02,429.2 403.02,431.66 399.81,431.66C396.32,431.66 394.56,428.9 394.56,424.25C394.56,419.4 396.56,416.96 399.81,416.96C403.06,416.96 405.02,419.68 405.02,424.31M402.39,424.31C402.39,420.81 401.5,419.2 399.8,419.2C398.1,419.2 397.19,421.05 397.19,424.25C397.19,427.79 398.08,429.4 399.8,429.4C401.52,429.4 402.39,427.55 402.39,424.31M325.75,431.47L336.05,431.47L336.05,428.41L329.4,428.41L329.4,425.79L335.56,425.79L335.56,422.91L329.4,422.91L329.4,420.25L336.15,420.25L336.15,417.17L325.85,417.17L325.75,431.47ZM365.99,421.84C365.99,419.16 364.12,417.16 360.58,417.16L353.67,417.16L353.67,431.47L357.22,431.47L357.22,420.24L360.22,420.24C361.42,420.24 362.22,420.83 362.22,422.02C362.225,422.081 362.228,422.143 362.228,422.204C362.228,423.328 361.342,424.271 360.22,424.34L358.59,424.34L361.29,431.34L365.1,431.34L362.49,426.64C364.664,426.031 366.124,423.962 365.97,421.71M379.13,424.07C379.13,426.37 377.95,427.95 376.13,428.29L376.62,431.46C380.362,431.133 383.207,427.85 383,424.1C383,419.64 380,416.65 375.41,416.65C370.82,416.65 367.82,419.65 367.82,424.1C367.594,427.844 370.416,431.138 374.15,431.49L374.64,428.32C372.77,427.99 371.64,426.4 371.64,424.1C371.64,421.54 373.14,419.82 375.44,419.82C377.74,419.82 379.24,421.54 379.24,424.1M425.04,425.74L425.04,417.06L421.66,417.06L415.66,426.06L415.66,428L420.82,428L421.16,425.79L418.46,425.79L422.55,419.52L422.55,431.41L425,431.41L425,428L427,428L427,425.79L425.04,425.74ZM388.16,429.13L390.16,427.31C392.49,425.18 393.83,423.24 393.83,421.19C393.83,418.66 391.92,416.85 388.98,416.85C386.04,416.85 384.09,418.69 384.15,421.55L386.58,421.69C386.56,421.567 386.549,421.443 386.549,421.319C386.549,420.085 387.565,419.069 388.799,419.069C388.819,419.069 388.84,419.069 388.86,419.07C388.922,419.065 388.985,419.062 389.047,419.062C390.232,419.062 391.207,420.037 391.207,421.222C391.207,421.281 391.205,421.341 391.2,421.4C391.2,422.78 390.12,424.19 388.46,425.74C387.39,426.74 384.23,429.45 384.23,429.45L384.23,431.37L393.95,431.37L393.95,429.14L388.16,429.13ZM409.76,429.13L411.76,427.31C414.09,425.18 415.43,423.24 415.43,421.19C415.43,418.66 413.52,416.85 410.58,416.85C407.64,416.85 405.69,418.69 405.75,421.55L408.18,421.69C408.16,421.567 408.149,421.443 408.149,421.319C408.149,420.085 409.165,419.069 410.399,419.069C410.419,419.069 410.44,419.069 410.46,419.07C410.522,419.065 410.585,419.062 410.647,419.062C411.832,419.062 412.807,420.037 412.807,421.222C412.807,421.281 412.805,421.341 412.8,421.4C412.8,422.78 411.72,424.19 410.06,425.74C408.99,426.74 405.83,429.45 405.83,429.45L405.83,431.37L415.55,431.37L415.55,429.14L409.76,429.13ZM394.76,401.8C383.642,392.369 367.168,392.369 356.05,401.8C355.537,402.24 355.047,402.697 354.58,403.17L355.53,404.34C356.01,403.853 356.51,403.383 357.03,402.93C367.588,393.982 383.222,393.982 393.78,402.93C394.3,403.383 394.8,403.853 395.28,404.34L396.23,403.17C395.757,402.697 395.267,402.24 394.76,401.8M375.4,407.17C370.469,407.132 365.76,409.252 362.52,412.97L363.44,414.1C366.423,410.597 370.799,408.576 375.4,408.576C380.001,408.576 384.377,410.597 387.36,414.1L388.28,412.97C385.04,409.252 380.331,407.132 375.4,407.17M391.33,403.24L391.06,403.03C390.772,402.789 390.348,402.789 390.06,403.03L383.68,407.16L385.35,408.1L389.42,405.47L388.72,407.83L388.1,407.37L387.03,408.13L388.35,409.13L388.04,410.19L389.5,411.53L391.62,404.24C391.789,403.885 391.669,403.456 391.34,403.24M381.34,400.37L384.03,401.07L384.45,399.43L381.69,398.71C381.428,398.599 381.146,398.541 380.861,398.541C379.83,398.541 378.941,399.293 378.77,400.31L377.64,404.66C377.619,404.726 377.609,404.795 377.609,404.864C377.609,405.185 377.836,405.465 378.15,405.53L379.15,405.8L380,403L383.11,403.81L383.53,402.19L380.42,401.38L380.54,400.91C380.7,400.29 380.88,400.24 381.43,400.38M372.71,397.98L368.23,398.89C367.898,398.939 367.649,399.227 367.649,399.563C367.649,399.619 367.656,399.675 367.67,399.73L368.56,404.13C368.657,404.76 369.022,405.318 369.56,405.66C369.911,405.867 370.313,405.971 370.72,405.96C370.965,405.958 371.21,405.931 371.45,405.88L374.25,405.31L373.91,403.65L371.18,404.2C370.62,404.31 370.44,404.25 370.31,403.62L370.21,403.15L373.36,402.51L373.03,400.87L369.88,401.51L369.64,400.33L373.09,399.63L372.71,397.98ZM365.71,407.05C365.788,406.224 365.52,405.401 364.97,404.78L362.18,401.34L360.8,402.46L363.37,405.62C363.734,405.951 363.929,406.429 363.9,406.92C363.749,407.726 363.029,408.309 362.21,408.29C361.76,408.24 361.49,408.06 361.05,407.51L358.48,404.35L357,405.47L359.8,408.91C360.295,409.576 361.045,410.007 361.87,410.1L362.15,410.1C362.956,410.095 363.733,409.8 364.34,409.27C365.062,408.729 365.532,407.915 365.64,407.02" style="fill:white;fill-rule:nonzero;"/>
    </g>
</svg>
