<?xml version="1.0" encoding="UTF-8" standalone="no"?>
<!DOCTYPE svg PUBLIC "-//W3C//DTD SVG 1.1//EN" "http://www.w3.org/Graphics/SVG/1.1/DTD/svg11.dtd">
<svg width="100%" height="100%" viewBox="0 0 24 18" version="1.1" xmlns="http://www.w3.org/2000/svg" xmlns:xlink="http://www.w3.org/1999/xlink" xml:space="preserve" xmlns:serif="http://www.serif.com/" style="fill-rule:evenodd;clip-rule:evenodd;stroke-linejoin:round;stroke-miterlimit:2;">
    <rect id="croatia" x="0" y="0" width="24" height="18" style="fill:none;"/>
    <g id="croatia1" serif:id="croatia">
        <g transform="matrix(1.04348,0,0,1.2,-1.04348,-1.2)">
            <rect x="1" y="1" width="23" height="5" style="fill:rgb(255,0,0);"/>
        </g>
        <g transform="matrix(1.04348,0,0,1.2,-1.04348,10.8)">
            <rect x="1" y="1" width="23" height="5" style="fill:rgb(0,11,255);"/>
        </g>
        <g transform="matrix(1.04348,0,0,1.2,-1.04348,4.8)">
            <rect x="1" y="1" width="23" height="5" style="fill:white;"/>
        </g>
        <g transform="matrix(0.0869565,0,0,0.4,8.91304,5.6)">
            <rect x="1" y="1" width="23" height="5" style="fill:rgb(255,0,0);"/>
        </g>
        <g transform="matrix(0.0869565,0,0,0.4,10.913,7.6)">
            <rect x="1" y="1" width="23" height="5" style="fill:rgb(255,0,0);"/>
        </g>
        <g transform="matrix(0.0869565,0,0,0.4,12.913,5.6)">
            <rect x="1" y="1" width="23" height="5" style="fill:rgb(255,0,0);"/>
        </g>
        <g transform="matrix(0.0869565,0,0,0.4,8.91304,9.6)">
            <rect x="1" y="1" width="23" height="5" style="fill:rgb(255,0,0);"/>
        </g>
        <g transform="matrix(0.0869565,0,0,0.4,12.913,9.6)">
            <rect x="1" y="1" width="23" height="5" style="fill:rgb(255,0,0);"/>
        </g>
        <g transform="matrix(0.0869565,0,0,0.4,10.913,11.6)">
            <rect x="1" y="1" width="23" height="5" style="fill:rgb(255,0,0);"/>
        </g>
        <g transform="matrix(0.0869565,0,0,0.4,6.91304,3.6)">
            <rect x="1" y="1" width="23" height="5" style="fill:rgb(0,11,255);fill-opacity:0.5;"/>
        </g>
        <g transform="matrix(0.0869565,0,0,0.4,10.913,3.6)">
            <rect x="1" y="1" width="23" height="5" style="fill:rgb(0,11,255);"/>
        </g>
        <g transform="matrix(0.0869565,0,0,0.4,10.913,1.6)">
            <rect x="1" y="1" width="23" height="5" style="fill:rgb(0,11,255);fill-opacity:0.25;"/>
        </g>
        <g transform="matrix(0.0869565,0,0,0.4,14.913,3.6)">
            <rect x="1" y="1" width="23" height="5" style="fill:rgb(0,11,255);fill-opacity:0.5;"/>
        </g>
    </g>
</svg>
