<?xml version="1.0" encoding="UTF-8" standalone="no"?>
<!DOCTYPE svg PUBLIC "-//W3C//DTD SVG 1.1//EN" "http://www.w3.org/Graphics/SVG/1.1/DTD/svg11.dtd">
<svg width="100%" height="100%" viewBox="0 0 24 18" version="1.1" xmlns="http://www.w3.org/2000/svg" xmlns:xlink="http://www.w3.org/1999/xlink" xml:space="preserve" xmlns:serif="http://www.serif.com/" style="fill-rule:evenodd;clip-rule:evenodd;stroke-linejoin:round;stroke-miterlimit:2;">
    <rect id="portugal" x="0" y="0" width="24" height="18" style="fill:none;"/>
    <g id="portugal1" serif:id="portugal">
        <g transform="matrix(2,0,0,1,8,0)">
            <rect x="0" y="0" width="8" height="18" style="fill:rgb(241,13,13);"/>
        </g>
        <rect x="0" y="0" width="8" height="18" style="fill:rgb(0,117,74);"/>
        <g transform="matrix(0.5,0,0,0.222222,6,7)">
            <rect x="0" y="0" width="8" height="18" style="fill:rgb(241,13,13);"/>
        </g>
        <g transform="matrix(0.5,0,0,0.111111,6,5)">
            <rect x="0" y="0" width="8" height="18" style="fill:rgb(244,213,39);"/>
        </g>
        <g transform="matrix(0.5,0,0,0.111111,6,11)">
            <rect x="0" y="0" width="8" height="18" style="fill:rgb(244,213,39);"/>
        </g>
        <g transform="matrix(3.06162e-17,-0.5,0.111111,6.80359e-18,4,11)">
            <rect x="0" y="0" width="8" height="18" style="fill:rgb(244,213,39);"/>
        </g>
        <g transform="matrix(1.53081e-17,-0.25,0.111111,6.80359e-18,4,7)">
            <rect x="0" y="0" width="8" height="18" style="fill:rgb(244,213,39);fill-opacity:0.4;"/>
        </g>
        <g transform="matrix(1.53081e-17,-0.25,0.111111,6.80359e-18,10,7)">
            <rect x="0" y="0" width="8" height="18" style="fill:rgb(244,213,39);fill-opacity:0.4;"/>
        </g>
        <g transform="matrix(1.53081e-17,-0.25,0.111111,6.80359e-18,4,13)">
            <rect x="0" y="0" width="8" height="18" style="fill:rgb(244,213,39);fill-opacity:0.4;"/>
        </g>
        <g transform="matrix(1.53081e-17,-0.25,0.111111,6.80359e-18,10,13)">
            <rect x="0" y="0" width="8" height="18" style="fill:rgb(244,213,39);fill-opacity:0.4;"/>
        </g>
        <g transform="matrix(3.06162e-17,-0.5,0.111111,6.80359e-18,10,11)">
            <rect x="0" y="0" width="8" height="18" style="fill:rgb(244,213,39);"/>
        </g>
    </g>
</svg>
