<?xml version="1.0" encoding="UTF-8" standalone="no"?>
<!DOCTYPE svg PUBLIC "-//W3C//DTD SVG 1.1//EN" "http://www.w3.org/Graphics/SVG/1.1/DTD/svg11.dtd">
<svg width="100%" height="100%" viewBox="0 0 24 18" version="1.1" xmlns="http://www.w3.org/2000/svg" xmlns:xlink="http://www.w3.org/1999/xlink" xml:space="preserve" xmlns:serif="http://www.serif.com/" style="fill-rule:evenodd;clip-rule:evenodd;stroke-linejoin:round;stroke-miterlimit:2;">
    <rect id="slovakia" x="0" y="0" width="24" height="18" style="fill:none;"/>
    <g id="slovakia1" serif:id="slovakia">
        <g transform="matrix(1.04348,0,0,1.2,-1.04348,10.8)">
            <rect x="1" y="1" width="23" height="5" style="fill:rgb(255,0,0);"/>
        </g>
        <g transform="matrix(1.04348,0,0,1.2,-1.04348,4.8)">
            <rect x="1" y="1" width="23" height="5" style="fill:rgb(0,11,255);"/>
        </g>
        <g transform="matrix(1.04348,0,0,1.2,-1.04348,-1.2)">
            <rect x="1" y="1" width="23" height="5" style="fill:white;"/>
        </g>
        <g transform="matrix(0.0869565,0,0,1.2,9.91304,4.8)">
            <rect x="1" y="1" width="23" height="5" style="fill:rgb(241,13,13);"/>
        </g>
        <g transform="matrix(0.173913,0,0,0.4,5.82609,11.6)">
            <rect x="1" y="1" width="23" height="5" style="fill:rgb(0,11,255);"/>
        </g>
        <g transform="matrix(0.173913,0,0,1.6,5.82609,2.4)">
            <rect x="1" y="1" width="23" height="5" style="fill:rgb(241,13,13);"/>
        </g>
        <g transform="matrix(0.0869565,0,0,0.4,9.91304,3.6)">
            <rect x="1" y="1" width="23" height="5" style="fill:rgb(241,13,13);fill-opacity:0.75;"/>
        </g>
        <g transform="matrix(0.0869565,0,0,0.4,3.91304,3.6)">
            <rect x="1" y="1" width="23" height="5" style="fill:rgb(241,13,13);fill-opacity:0.75;"/>
        </g>
        <g transform="matrix(0.0869565,0,0,0.8,6.91304,5.2)">
            <rect x="1" y="1" width="23" height="5" style="fill:white;"/>
        </g>
        <g transform="matrix(0.0869565,0,0,0.4,6.91304,5.6)">
            <rect x="1" y="1" width="23" height="5" style="fill:white;"/>
        </g>
        <g transform="matrix(0.173913,0,0,0.4,5.82609,9.6)">
            <rect x="1" y="1" width="23" height="5" style="fill:rgb(0,11,255);"/>
        </g>
        <g transform="matrix(0.0869565,0,0,1.2,3.91304,4.8)">
            <rect x="1" y="1" width="23" height="5" style="fill:rgb(241,13,13);"/>
        </g>
    </g>
</svg>
