<?xml version="1.0" encoding="UTF-8" standalone="no"?>
<!DOCTYPE svg PUBLIC "-//W3C//DTD SVG 1.1//EN" "http://www.w3.org/Graphics/SVG/1.1/DTD/svg11.dtd">
<svg width="100%" height="100%" viewBox="0 0 24 18" version="1.1" xmlns="http://www.w3.org/2000/svg" xmlns:xlink="http://www.w3.org/1999/xlink" xml:space="preserve" xmlns:serif="http://www.serif.com/" style="fill-rule:evenodd;clip-rule:evenodd;stroke-linejoin:round;stroke-miterlimit:2;">
    <rect id="spain" x="0" y="0" width="24" height="18" style="fill:none;"/>
    <g id="spain1" serif:id="spain">
        <g id="spain2" serif:id="spain">
            <g transform="matrix(1,0,0,1.25,0,0)">
                <rect x="0" y="0" width="24" height="4" style="fill:rgb(241,13,13);"/>
            </g>
            <g transform="matrix(1,0,0,0.888889,0,0.555556)">
                <rect x="0" y="5" width="24" height="9" style="fill:rgb(255,237,0);"/>
            </g>
            <g transform="matrix(1,0,0,1.25,0,13)">
                <rect x="0" y="0" width="24" height="4" style="fill:rgb(241,13,13);"/>
            </g>
        </g>
        <g id="badge">
            <g transform="matrix(0.25,0,0,0.111111,6,7)">
                <rect x="0" y="0" width="8" height="18" style="fill:rgb(241,13,13);fill-opacity:0.25;"/>
            </g>
            <g transform="matrix(0.25,0,0,0.111111,8,7)">
                <rect x="0" y="0" width="8" height="18" style="fill:white;fill-opacity:0.5;"/>
            </g>
            <g transform="matrix(0.25,0,0,0.111111,6,9)">
                <rect x="0" y="0" width="8" height="18" style="fill:rgb(255,237,0);fill-opacity:0.75;"/>
            </g>
            <g transform="matrix(0.25,0,0,0.111111,8,9)">
                <rect x="0" y="0" width="8" height="18" style="fill:rgb(241,13,13);fill-opacity:0.25;"/>
            </g>
            <g transform="matrix(0.5,0,0,0.111111,6,5)">
                <rect x="0" y="0" width="8" height="18" style="fill:rgb(244,213,39);"/>
            </g>
            <g transform="matrix(0.5,0,0,0.111111,6,11)">
                <rect x="0" y="0" width="8" height="18" style="fill:rgb(244,213,39);"/>
            </g>
            <g transform="matrix(3.06162e-17,-0.5,0.111111,6.80359e-18,4,11)">
                <rect x="0" y="0" width="8" height="18" style="fill:rgb(244,213,39);"/>
            </g>
            <g transform="matrix(1.53081e-17,-0.25,0.111111,6.80359e-18,4,7)">
                <rect x="0" y="0" width="8" height="18" style="fill:rgb(244,213,39);fill-opacity:0.4;"/>
            </g>
            <g transform="matrix(1.53081e-17,-0.25,0.111111,6.80359e-18,10,7)">
                <rect x="0" y="0" width="8" height="18" style="fill:rgb(244,213,39);fill-opacity:0.4;"/>
            </g>
            <g transform="matrix(1.53081e-17,-0.25,0.111111,6.80359e-18,4,13)">
                <rect x="0" y="0" width="8" height="18" style="fill:rgb(244,213,39);fill-opacity:0.4;"/>
            </g>
            <g transform="matrix(1.53081e-17,-0.25,0.111111,6.80359e-18,10,13)">
                <rect x="0" y="0" width="8" height="18" style="fill:rgb(244,213,39);fill-opacity:0.4;"/>
            </g>
            <g transform="matrix(3.06162e-17,-0.5,0.111111,6.80359e-18,10,11)">
                <rect x="0" y="0" width="8" height="18" style="fill:rgb(244,213,39);"/>
            </g>
        </g>
    </g>
</svg>
