<?xml version="1.0" encoding="UTF-8" standalone="no"?>
<!DOCTYPE svg PUBLIC "-//W3C//DTD SVG 1.1//EN" "http://www.w3.org/Graphics/SVG/1.1/DTD/svg11.dtd">
<svg width="100%" height="100%" viewBox="0 0 926 1032" version="1.1" xmlns="http://www.w3.org/2000/svg" xmlns:xlink="http://www.w3.org/1999/xlink" xml:space="preserve" xmlns:serif="http://www.serif.com/" style="fill-rule:evenodd;clip-rule:evenodd;stroke-linecap:round;stroke-linejoin:round;stroke-miterlimit:1.5;">
    <g id="Artboard1" transform="matrix(1.00121,0,0,0.998952,0,1.47283e-12)">
        <rect x="0" y="-0" width="924.882" height="1033.08" style="fill:none;"/>
        <clipPath id="_clip1">
            <rect x="0" y="-0" width="924.882" height="1033.08"/>
        </clipPath>
        <g clip-path="url(#_clip1)">
            <g id="Anna" transform="matrix(15.9586,-7.01582e-15,1.10769e-15,-11.7881,-60449.8,37121.8)">
                <g transform="matrix(0.0724582,-4.32048e-17,6.23907e-18,-0.0888497,3783.56,3142.12)">
                    <path d="M859.875,555.9C859.875,534.431 844.122,517 824.72,517L95.19,517C75.788,517 60.035,534.431 60.035,555.9L60.035,867.1C60.035,888.569 75.788,906 95.19,906L824.72,906C844.122,906 859.875,888.569 859.875,867.1L859.875,555.9Z" style="fill:rgb(210,132,68);"/>
                    <path d="M859.875,555.9C859.875,534.431 844.122,517 824.72,517L95.19,517C75.788,517 60.035,534.431 60.035,555.9L60.035,867.1C60.035,888.569 75.788,906 95.19,906L824.72,906C844.122,906 859.875,888.569 859.875,867.1L859.875,555.9ZM825.324,555.9L825.324,867.1C825.324,867.469 825.053,867.769 824.72,867.769C824.72,867.769 95.19,867.769 95.19,867.769C94.857,867.769 94.586,867.469 94.586,867.1L94.586,555.9C94.586,555.531 94.857,555.231 95.19,555.231C95.19,555.231 824.72,555.231 824.72,555.231C825.053,555.231 825.324,555.531 825.324,555.9Z"/>
                </g>
                <g id="Face" transform="matrix(1,6.72742e-18,1.88744e-17,0.96124,4.52351e-13,122.057)">
                    <g transform="matrix(0.0625863,-3.72489e-17,6.03463e-18,-0.0869421,3787.91,3151.17)">
                        <path d="M863,430.452C863,206.125 683.766,24 463,24C242.234,24 63,206.125 63,430.452L63,625.548C63,849.875 242.234,1032 463,1032C683.766,1032 863,849.875 863,625.548L863,430.452Z" style="fill:rgb(255,204,168);"/>
                        <path d="M863,430.452C863,206.125 683.766,24 463,24C242.234,24 63,206.125 63,430.452L63,625.548C63,849.875 242.234,1032 463,1032C683.766,1032 863,849.875 863,625.548L863,430.452ZM823,430.452L823,625.548C823,827.442 661.689,991.355 463,991.355C264.311,991.355 103,827.442 103,625.548L103,430.452C103,228.558 264.311,64.645 463,64.645C661.689,64.645 823,228.558 823,430.452Z"/>
                    </g>
                    <g id="Mouth" transform="matrix(0.0915771,-5.44051e-17,9.96539e-18,-0.144788,3774.36,3178.88)">
                        <path d="M379.764,674C434.882,721.025 490,720.842 545.118,674" style="fill:none;stroke:black;stroke-width:25.75px;"/>
                    </g>
                    <g id="Eyes" transform="matrix(1,1.97215e-31,-2.46519e-32,1,0.612691,-4.233)">
                        <g transform="matrix(0.0264151,-1.5693e-17,2.46344e-18,-0.0357914,3816.38,3133.38)">
                            <circle cx="354.331" cy="826.772" r="118.11"/>
                        </g>
                        <g transform="matrix(0.0264151,-1.5693e-17,2.46344e-18,-0.0357914,3797.75,3133.38)">
                            <circle cx="354.331" cy="826.772" r="118.11"/>
                        </g>
                    </g>
                </g>
                <g transform="matrix(0.0625863,-3.72489e-17,5.89429e-18,-0.0849202,3787.91,3149.08)">
                    <g id="hair_template">
                        <path d="M0,985.659L-0,399.961C-0,179.239 207.463,0.041 463,0.041C718.537,0.041 926,179.239 926,399.961L926,985.659C926,1010.66 905.702,1030.96 880.7,1030.96L83.716,1030.96C79.744,1031.64 75.663,1032 71.5,1032C67.337,1032 63.256,1031.64 59.284,1030.96L45.3,1030.96C20.298,1030.96 0,1010.66 0,985.659ZM783,514.959L782.997,514.959C782.441,396.78 686.318,301 568,301C529.874,301 494.053,310.945 463,328.376C431.947,310.945 396.126,301 358,301C239.682,301 143.559,396.78 143.003,514.959L143,514.959L143,755.486C202.066,872.557 317.84,951 463,951C608.16,951 723.934,870.652 783,753.715L783,514.959Z" style="fill:rgb(255,250,196);"/>
                        <path d="M0,985.659L-0,399.961C-0,179.239 207.463,0.041 463,0.041C718.537,0.041 926,179.239 926,399.961L926,985.659C926,1010.66 905.702,1030.96 880.7,1030.96L83.716,1030.96C79.744,1031.64 75.663,1032 71.5,1032C67.337,1032 63.256,1031.64 59.284,1030.96L45.3,1030.96C20.298,1030.96 0,1010.66 0,985.659ZM886,985.659L886,399.961C886,199.588 694.979,40.041 463,40.041C231.021,40.041 40,199.588 40,399.961L40,514.959C40,514.959 -0,554.959 0,554.959L40,514.959L40,985.659C40,988.584 42.375,990.959 45.3,990.959L59.284,990.959C61.562,990.959 63.835,991.153 66.08,991.54C67.842,991.844 69.653,992 71.5,992C73.347,992 75.158,991.844 76.92,991.54C79.165,991.153 81.438,990.959 83.716,990.959L458.104,990.959C299.015,989.231 172.296,902.352 107.288,773.504C104.469,767.916 103,761.745 103,755.486L103,514.959L103.034,516.319L103.003,514.77C103.663,374.604 217.668,261 358,261C395.425,261 430.975,269.086 463,283.589C495.025,269.086 530.575,261 568,261C708.332,261 822.337,374.604 822.997,514.77L783.003,554.952L783,554.959L823,514.959L823,753.715C823,759.98 821.528,766.157 818.704,771.749C753.701,900.439 626.889,989.228 467.789,990.959L880.7,990.959C883.625,990.959 886,988.584 886,985.659ZM783,514.959L782.997,514.959C782.441,396.78 686.318,301 568,301C529.874,301 494.053,310.945 463,328.376C431.947,310.945 396.126,301 358,301C239.682,301 143.559,396.78 143.003,514.959L143,514.959L143,755.486C202.066,872.557 317.84,951 463,951C608.16,951 723.934,870.652 783,753.715L783,514.959ZM115.989,544.458L114.654,543.178C115.089,543.615 115.534,544.043 115.989,544.458L116,544.469L116.204,544.647L117.317,545.624L117.386,545.679L117.399,545.691L117.548,545.809L118.73,546.756L118.844,546.839L118.848,546.842L118.879,546.864C121.234,548.653 123.796,550.183 126.521,551.417C130.971,553.432 135.857,554.655 140.997,554.908C132.959,554.505 125.255,551.687 118.879,546.864L118.844,546.839L117.548,545.809L117.386,545.679L116.204,544.647L115.989,544.458ZM113.391,541.854L114.623,543.145L113.303,541.751L113.391,541.854ZM112.134,540.402L113.132,541.554L112.017,540.253L112.134,540.402ZM110.947,538.891L111.863,540.057L110.8,538.686L110.947,538.891ZM103.185,518.768C103.532,522.45 104.379,525.987 105.656,529.31C106.934,532.633 108.643,535.741 110.716,538.566C106.478,532.774 103.87,525.935 103.185,518.768ZM103.052,517.017L103.166,518.514L103.047,516.811L103.052,517.017Z"/>
                    </g>
                </g>
            </g>
        </g>
    </g>
</svg>
