<?xml version="1.0" encoding="UTF-8" standalone="no"?>
<!DOCTYPE svg PUBLIC "-//W3C//DTD SVG 1.1//EN" "http://www.w3.org/Graphics/SVG/1.1/DTD/svg11.dtd">
<svg width="100%" height="100%" viewBox="0 0 926 1032" version="1.1" xmlns="http://www.w3.org/2000/svg" xmlns:xlink="http://www.w3.org/1999/xlink" xml:space="preserve" xmlns:serif="http://www.serif.com/" style="fill-rule:evenodd;clip-rule:evenodd;stroke-linecap:round;stroke-linejoin:round;stroke-miterlimit:1.5;">
    <g id="Artboard1" transform="matrix(1.00121,0,0,0.998952,0,1.47283e-12)">
        <rect x="0" y="-0" width="924.882" height="1033.08" style="fill:none;"/>
        <clipPath id="_clip1">
            <rect x="0" y="-0" width="924.882" height="1033.08"/>
        </clipPath>
        <g clip-path="url(#_clip1)">
            <g id="Ben" transform="matrix(15.9854,-7.02473e-15,1.10024e-15,-11.8244,-60555,37235.8)">
                <g id="Face">
                    <g id="Face1" serif:id="Face" transform="matrix(0.0624815,-3.71197e-17,5.61798e-18,-0.081624,3788.14,3145.86)">
                        <path d="M827.751,694.273C813.656,883.627 655.364,1033.08 462.441,1033.08C269.518,1033.08 111.226,883.627 97.13,694.259C96.424,694.28 95.713,694.29 95,694.29C42.568,694.29 0,640.579 0,574.423C0,508.267 42.568,454.557 95,454.557C95.372,454.557 95.744,454.56 96.11,454.566L96.11,368.356C96.11,166.173 260.258,2.026 462.441,2.026C664.624,2.026 828.772,166.173 828.772,368.356L828.772,454.559L829.32,454.557C881.752,454.557 924.32,508.267 924.32,574.423C924.32,640.579 881.752,694.29 829.32,694.29C828.796,694.29 828.273,694.284 827.751,694.273Z" style="fill:rgb(255,204,168);"/>
                        <path d="M827.751,694.273C813.656,883.627 655.364,1033.08 462.441,1033.08C269.518,1033.08 111.226,883.627 97.13,694.259C96.424,694.28 95.713,694.29 95,694.29C42.568,694.29 0,640.579 0,574.423C0,508.267 42.568,454.557 95,454.557C95.372,454.557 95.744,454.56 96.11,454.566L96.11,368.356C96.11,166.173 260.258,2.026 462.441,2.026C664.624,2.026 828.772,166.173 828.772,368.356L828.772,454.559L829.32,454.557C881.752,454.557 924.32,508.267 924.32,574.423C924.32,640.579 881.752,694.29 829.32,694.29C828.796,694.29 828.273,694.284 827.751,694.273ZM828.585,652.794C807.371,652.335 789.503,669.137 787.87,691.079C775.338,859.438 633.973,991.595 462.441,991.595C290.909,991.595 149.544,859.437 137.011,691.066C135.37,669.014 117.338,652.175 96.022,652.787C95.684,652.797 95.342,652.802 95,652.802C62.243,652.802 40,615.754 40,574.423C40,533.093 62.243,496.045 95,496.045C95.171,496.045 95.341,496.046 95.509,496.049C106.221,496.216 116.55,491.919 124.181,484.121C131.813,476.324 136.11,465.677 136.11,454.566L136.11,368.356C136.11,188.645 282.729,43.513 462.441,43.513C642.153,43.513 788.772,188.645 788.772,368.356C788.772,368.356 788.772,454.559 788.772,454.559C788.772,465.59 793.007,476.167 800.542,483.952C808.077,491.737 818.291,496.089 828.926,496.047L829.381,496.045C862.104,496.091 884.32,533.118 884.32,574.423C884.32,615.754 862.077,652.802 829.32,652.802C829.075,652.802 828.83,652.799 828.585,652.794Z"/>
                    </g>
                    <g id="Eyes" transform="matrix(1,2.46519e-31,0,1,0.612691,-4.233)">
                        <g transform="matrix(0.0264151,-1.5693e-17,2.46344e-18,-0.0357914,3816.38,3133.38)">
                            <circle cx="354.331" cy="826.772" r="118.11"/>
                        </g>
                        <g transform="matrix(0.0264151,-1.5693e-17,2.46344e-18,-0.0357914,3797.75,3133.38)">
                            <circle cx="354.331" cy="826.772" r="118.11"/>
                        </g>
                    </g>
                    <g id="Mouth" transform="matrix(0.0915771,-5.44051e-17,9.96539e-18,-0.144788,3774.36,3178.88)">
                        <path d="M379.764,674C434.882,721.025 490,720.842 545.118,674" style="fill:none;stroke:black;stroke-width:25.12px;"/>
                    </g>
                </g>
                <g transform="matrix(0.0624815,-3.71197e-17,5.82694e-18,-0.08466,3788.14,3149.08)">
                    <path d="M86.422,516C85.584,511.124 84.897,506.27 84.357,501.457C71.211,471.372 63,436.231 63,400C63,363.769 71.211,328.628 84.357,298.543C88.015,265.915 98.474,231.377 116.59,200C134.706,168.623 159.387,142.296 185.814,122.814C205.296,96.387 231.623,71.706 263,53.59C294.377,35.474 328.915,25.015 361.543,21.357C391.628,8.211 426.769,0 463,0C499.231,0 534.372,8.211 564.457,21.357C597.085,25.015 631.623,35.474 663,53.59C694.377,71.706 720.704,96.387 740.186,122.814C766.613,142.296 791.294,168.623 809.41,200C827.526,231.377 837.985,265.915 841.643,298.543C854.789,328.628 863,363.769 863,400C863,436.231 854.789,471.372 841.643,501.457C841.103,506.27 840.416,511.124 839.578,516C834.733,487.795 824.854,458.749 809.41,432C791.294,400.623 766.613,374.296 740.186,354.814C720.704,328.387 694.377,303.706 663,285.59C631.623,267.474 597.085,257.015 564.457,253.357C534.372,240.211 499.231,232 463,232C426.769,232 391.628,240.211 361.543,253.357C328.915,257.015 294.377,267.474 263,285.59C231.623,303.706 205.296,328.387 185.814,354.814C159.387,374.296 134.706,400.623 116.59,432C101.146,458.749 91.267,487.795 86.422,516Z" style="fill:rgb(188,119,63);"/>
                    <path d="M86.422,516C85.584,511.124 84.897,506.27 84.357,501.457C71.211,471.372 63,436.231 63,400C63,363.769 71.211,328.628 84.357,298.543C88.015,265.915 98.474,231.377 116.59,200C134.706,168.623 159.387,142.296 185.814,122.814C205.296,96.387 231.623,71.706 263,53.59C294.377,35.474 328.915,25.015 361.543,21.357C391.628,8.211 426.769,0 463,0C499.231,0 534.372,8.211 564.457,21.357C597.085,25.015 631.623,35.474 663,53.59C694.377,71.706 720.704,96.387 740.186,122.814C766.613,142.296 791.294,168.623 809.41,200C827.526,231.377 837.985,265.915 841.643,298.543C854.789,328.628 863,363.769 863,400C863,436.231 854.789,471.372 841.643,501.457C841.103,506.27 840.416,511.124 839.578,516C834.733,487.795 824.854,458.749 809.41,432C791.294,400.623 766.613,374.296 740.186,354.814C720.704,328.387 694.377,303.706 663,285.59C631.623,267.474 597.085,257.015 564.457,253.357C534.372,240.211 499.231,232 463,232C426.769,232 391.628,240.211 361.543,253.357C328.915,257.015 294.377,267.474 263,285.59C231.623,303.706 205.296,328.387 185.814,354.814C159.387,374.296 134.706,400.623 116.59,432C101.146,458.749 91.267,487.795 86.422,516ZM821.925,379.22C806.056,358.804 787.863,340.977 768.746,326.253C746.593,297.489 717.412,270.817 683,250.949C648.588,231.081 610.899,219.146 574.911,214.343C541.344,200.509 502.736,192 463,192C423.264,192 384.658,200.508 351.089,214.343C315.101,219.146 277.412,231.081 243,250.949C208.588,270.817 179.407,297.489 157.253,326.254C138.136,340.977 119.944,358.804 104.075,379.22C106.395,356.157 112.475,334.094 121.011,314.559C122.617,310.883 123.661,306.986 124.108,302.999C127.189,275.521 135.974,246.426 151.231,220C166.488,193.574 187.292,171.418 209.549,155.011C212.778,152.631 215.631,149.778 218.011,146.549C234.418,124.292 256.574,103.488 283,88.231C309.426,72.974 338.521,64.189 365.999,61.108C369.986,60.661 373.883,59.617 377.559,58.011C402.897,46.939 432.486,40 463,40C493.514,40 523.103,46.939 548.441,58.011C552.117,59.617 556.014,60.661 560.001,61.108C587.479,64.189 616.574,72.974 643,88.231C669.426,103.488 691.582,124.292 707.989,146.549C710.369,149.778 713.222,152.631 716.451,155.011C738.708,171.418 759.512,193.574 774.769,220C790.026,246.426 798.811,275.521 801.892,302.999C802.339,306.986 803.383,310.883 804.989,314.559C813.525,334.094 819.605,356.157 821.925,379.22Z"/>
                </g>
            </g>
        </g>
    </g>
</svg>
