<?xml version="1.0" encoding="UTF-8" standalone="no"?>
<!DOCTYPE svg PUBLIC "-//W3C//DTD SVG 1.1//EN" "http://www.w3.org/Graphics/SVG/1.1/DTD/svg11.dtd">
<svg width="100%" height="100%" viewBox="0 0 926 1032" version="1.1" xmlns="http://www.w3.org/2000/svg" xmlns:xlink="http://www.w3.org/1999/xlink" xml:space="preserve" xmlns:serif="http://www.serif.com/" style="fill-rule:evenodd;clip-rule:evenodd;stroke-linecap:round;stroke-linejoin:round;stroke-miterlimit:1.5;">
    <g id="Artboard1" transform="matrix(1.00121,0,0,0.998952,0,1.47283e-12)">
        <rect x="0" y="-0" width="924.882" height="1033.08" style="fill:none;"/>
        <clipPath id="_clip1">
            <rect x="0" y="-0" width="924.882" height="1033.08"/>
        </clipPath>
        <g clip-path="url(#_clip1)">
            <g id="Erin" transform="matrix(15.9586,-7.01582e-15,1.10769e-15,-11.7881,-60449.8,37121.8)">
                <g id="Face" transform="matrix(1,6.72742e-18,1.88744e-17,0.96124,4.52351e-13,122.057)">
                    <g transform="matrix(0.0625863,-3.72489e-17,6.03463e-18,-0.0869421,3787.91,3151.17)">
                        <path d="M863,430.452C863,206.125 683.766,24 463,24C242.234,24 63,206.125 63,430.452L63,625.548C63,849.875 242.234,1032 463,1032C683.766,1032 863,849.875 863,625.548L863,430.452Z" style="fill:rgb(255,204,168);"/>
                        <path d="M863,430.452C863,206.125 683.766,24 463,24C242.234,24 63,206.125 63,430.452L63,625.548C63,849.875 242.234,1032 463,1032C683.766,1032 863,849.875 863,625.548L863,430.452ZM823,430.452L823,625.548C823,827.442 661.689,991.355 463,991.355C264.311,991.355 103,827.442 103,625.548L103,430.452C103,228.558 264.311,64.645 463,64.645C661.689,64.645 823,228.558 823,430.452Z"/>
                    </g>
                    <g id="Mouth" transform="matrix(0.0915771,-5.44051e-17,9.96539e-18,-0.144788,3774.36,3178.88)">
                        <path d="M379.764,674C434.882,721.025 490,720.842 545.118,674" style="fill:none;stroke:black;stroke-width:25.75px;"/>
                    </g>
                    <g id="Eyes" transform="matrix(1,1.97215e-31,-2.46519e-32,1,0.612691,-4.233)">
                        <g transform="matrix(0.0264151,-1.5693e-17,2.46344e-18,-0.0357914,3816.38,3133.38)">
                            <circle cx="354.331" cy="826.772" r="118.11"/>
                        </g>
                        <g transform="matrix(0.0264151,-1.5693e-17,2.46344e-18,-0.0357914,3797.75,3133.38)">
                            <circle cx="354.331" cy="826.772" r="118.11"/>
                        </g>
                    </g>
                </g>
                <g transform="matrix(0.0625863,-3.72489e-17,5.89429e-18,-0.0849202,3787.91,3149.08)">
                    <g id="hair">
                        <path d="M0,985.659L0,379.379C-14.204,-122.35 911.759,-122.339 926,379.379L926,985.659C926,1010.66 905.702,1030.96 880.7,1030.96L83.716,1030.96C79.744,1031.64 75.663,1032 71.5,1032C67.337,1032 63.256,1031.64 59.284,1030.96L45.3,1030.96C20.298,1030.96 0,1010.66 0,985.659ZM783,488.959L726.22,488.959C604.54,475.834 503.93,371.454 463,265.46C421.22,371.533 319.152,475.833 196.951,488.959L143,488.959L143,755.486C202.066,872.557 317.84,951 463,951C608.16,951 723.934,870.652 783,753.715L783,488.959Z" style="fill:rgb(153,85,0);"/>
                        <path d="M0,985.659L0,379.379C-14.204,-122.35 911.759,-122.339 926,379.379L926,985.659C926,1010.66 905.702,1030.96 880.7,1030.96L83.716,1030.96C79.744,1031.64 75.663,1032 71.5,1032C67.337,1032 63.256,1031.64 59.284,1030.96L45.3,1030.96C20.298,1030.96 0,1010.66 0,985.659ZM886,441.459C886,441.459 886,379.963 886,379.946C879.188,152.469 662.433,43.088 452.333,43.087C243.267,43.085 33.57,151.689 39.984,378.247C39.995,378.625 40,379.002 40,379.379L40,450.15C40,450.15 0,490.15 0,490.15L40,450.15L40,985.659C40,988.584 42.375,990.959 45.3,990.959L59.284,990.959C61.562,990.959 63.835,991.153 66.08,991.54C67.842,991.844 69.653,992 71.5,992C73.347,992 75.158,991.844 76.92,991.54C79.165,991.153 81.438,990.959 83.716,990.959L458.104,990.959C299.015,989.231 172.296,902.352 107.288,773.504C104.469,767.916 103,761.745 103,755.486L103,488.959C103,466.867 120.909,448.959 143,448.959C143,448.959 194.716,448.959 194.724,448.958C301.452,436.441 389.211,343.652 425.783,250.801C431.823,235.466 446.652,225.405 463.134,225.461C479.616,225.516 494.377,235.675 500.315,251.051C536.086,343.685 622.369,436.451 728.466,448.959L783,448.959C805.091,448.959 823,466.867 823,488.959L823,753.715C823,759.98 821.528,766.157 818.704,771.749C753.701,900.439 626.889,989.228 467.789,990.959L880.7,990.959C883.625,990.959 886,988.584 886,985.659L886,441.459ZM783,488.959L726.22,488.959C604.54,475.834 503.93,371.454 463,265.46C421.22,371.533 319.152,475.833 196.951,488.959L143,488.959L143,755.486C202.066,872.557 317.84,951 463,951C608.16,951 723.934,870.652 783,753.715L783,488.959Z"/>
                    </g>
                </g>
            </g>
        </g>
    </g>
</svg>
