<?xml version="1.0" encoding="UTF-8" standalone="no"?>
<!DOCTYPE svg PUBLIC "-//W3C//DTD SVG 1.1//EN" "http://www.w3.org/Graphics/SVG/1.1/DTD/svg11.dtd">
<svg width="100%" height="100%" viewBox="0 0 926 1032" version="1.1" xmlns="http://www.w3.org/2000/svg" xmlns:xlink="http://www.w3.org/1999/xlink" xml:space="preserve" xmlns:serif="http://www.serif.com/" style="fill-rule:evenodd;clip-rule:evenodd;stroke-linecap:round;stroke-linejoin:round;stroke-miterlimit:1.5;">
    <g id="Artboard1" transform="matrix(1.00121,0,0,0.998952,0,1.47283e-12)">
        <rect x="0" y="-0" width="924.882" height="1033.08" style="fill:none;"/>
        <clipPath id="_clip1">
            <rect x="0" y="-0" width="924.882" height="1033.08"/>
        </clipPath>
        <g clip-path="url(#_clip1)">
            <g id="Grandad" transform="matrix(15.9854,-7.02473e-15,1.10024e-15,-11.8244,-60555,37235.8)">
                <g transform="matrix(-2.00105e-18,0.08466,0.0624815,-4.23036e-17,3788.14,3069.92)">
                    <path d="M66.005,428.359C64.057,419.232 63,409.721 63,400C63,360.53 80.429,324.54 103.986,303.802C93.953,274.065 96.855,234.182 116.59,200C136.325,165.818 169.413,143.364 200.183,137.183C206.364,106.413 228.818,73.325 263,53.59C297.182,33.855 337.065,30.953 366.802,40.986C387.54,17.429 423.53,-0 463,-0C502.47,-0 538.46,17.429 559.198,40.986C588.935,30.953 628.818,33.855 663,53.59C697.182,73.325 719.636,106.413 725.817,137.183C756.587,143.364 789.675,165.818 809.41,200C829.145,234.182 832.047,274.065 822.014,303.802C845.571,324.54 863,360.53 863,400C863,409.721 861.943,419.232 859.995,428.359C836.176,396.251 799.726,375.452 767.21,371.183C761.986,341.479 735.367,307.974 694.5,287.59C653.633,267.206 606.737,264.042 574.349,274.986C552.633,251.518 510.189,234 463,234C415.811,234 373.367,251.518 351.651,274.986C319.263,264.042 272.367,267.206 231.5,287.59C190.633,307.974 164.014,341.479 158.79,371.183C126.274,375.452 89.824,396.251 66.005,428.359Z" style="fill:white;"/>
                    <path d="M66.005,428.359C64.057,419.232 63,409.721 63,400C63,360.53 80.429,324.54 103.986,303.802C93.953,274.065 96.855,234.182 116.59,200C136.325,165.818 169.413,143.364 200.183,137.183C206.364,106.413 228.818,73.325 263,53.59C297.182,33.855 337.065,30.953 366.802,40.986C387.54,17.429 423.53,-0 463,-0C502.47,-0 538.46,17.429 559.198,40.986C588.935,30.953 628.818,33.855 663,53.59C697.182,73.325 719.636,106.413 725.817,137.183C756.587,143.364 789.675,165.818 809.41,200C829.145,234.182 832.047,274.065 822.014,303.802C845.571,324.54 863,360.53 863,400C863,409.721 861.943,419.232 859.995,428.359C836.176,396.251 799.726,375.452 767.21,371.183C761.986,341.479 735.367,307.974 694.5,287.59C653.633,267.206 606.737,264.042 574.349,274.986C552.633,251.518 510.189,234 463,234C415.811,234 373.367,251.518 351.651,274.986C319.263,264.042 272.367,267.206 231.5,287.59C190.633,307.974 164.014,341.479 158.79,371.183C126.274,375.452 89.824,396.251 66.005,428.359ZM127.449,336.614L126.275,337.825L127.84,337.314L128.74,335.362L127.449,336.614ZM782.602,310.512C766.358,287.98 742.628,266.896 712.354,251.795C670.288,230.813 623.054,225.122 585.012,231.343C555.343,209.644 511.351,194 463,194C414.649,194 370.657,209.644 340.987,231.343C302.946,225.122 255.712,230.813 213.646,251.795C183.372,266.896 159.642,287.98 143.398,310.512C144.509,304.119 144.05,297.426 141.887,291.016C135.015,270.645 137.712,243.415 151.231,220C164.749,196.585 186.983,180.634 208.06,176.4C223.869,173.225 236.225,160.869 239.4,145.06C243.634,123.983 259.585,101.749 283,88.231C306.415,74.712 333.645,72.015 354.016,78.887C369.294,84.041 386.173,79.519 396.827,67.416C411.032,51.279 435.963,40 463,40C490.037,40 514.968,51.279 529.173,67.416C539.827,79.519 556.706,84.041 571.984,78.887C592.355,72.015 619.585,74.712 643,88.231C666.415,101.749 682.366,123.983 686.6,145.06C689.775,160.869 702.131,173.225 717.94,176.4C739.017,180.634 761.251,196.585 774.769,220C788.288,243.415 790.985,270.645 784.113,291.016C781.95,297.426 781.491,304.119 782.602,310.512ZM798.551,336.614L797.26,335.361L798.16,337.314L799.725,337.825L798.551,336.614Z"/>
                </g>
                <g transform="matrix(-9.65283e-18,0.08466,-0.0624815,3.19357e-17,3845.84,3069.92)">
                    <path d="M66.005,428.359C64.057,419.232 63,409.721 63,400C63,360.53 80.429,324.54 103.986,303.802C93.953,274.065 96.855,234.182 116.59,200C136.325,165.818 169.413,143.364 200.183,137.183C206.364,106.413 228.818,73.325 263,53.59C297.182,33.855 337.065,30.953 366.802,40.986C387.54,17.429 423.53,-0 463,-0C502.47,-0 538.46,17.429 559.198,40.986C588.935,30.953 628.818,33.855 663,53.59C697.182,73.325 719.636,106.413 725.817,137.183C756.587,143.364 789.675,165.818 809.41,200C829.145,234.182 832.047,274.065 822.014,303.802C845.571,324.54 863,360.53 863,400C863,409.721 861.943,419.232 859.995,428.359C836.176,396.251 799.726,375.452 767.21,371.183C761.986,341.479 735.367,307.974 694.5,287.59C653.633,267.206 606.737,264.042 574.349,274.986C552.633,251.518 510.189,234 463,234C415.811,234 373.367,251.518 351.651,274.986C319.263,264.042 272.367,267.206 231.5,287.59C190.633,307.974 164.014,341.479 158.79,371.183C126.274,375.452 89.824,396.251 66.005,428.359Z" style="fill:white;"/>
                    <path d="M66.005,428.359C64.057,419.232 63,409.721 63,400C63,360.53 80.429,324.54 103.986,303.802C93.953,274.065 96.855,234.182 116.59,200C136.325,165.818 169.413,143.364 200.183,137.183C206.364,106.413 228.818,73.325 263,53.59C297.182,33.855 337.065,30.953 366.802,40.986C387.54,17.429 423.53,-0 463,-0C502.47,-0 538.46,17.429 559.198,40.986C588.935,30.953 628.818,33.855 663,53.59C697.182,73.325 719.636,106.413 725.817,137.183C756.587,143.364 789.675,165.818 809.41,200C829.145,234.182 832.047,274.065 822.014,303.802C845.571,324.54 863,360.53 863,400C863,409.721 861.943,419.232 859.995,428.359C836.176,396.251 799.726,375.452 767.21,371.183C761.986,341.479 735.367,307.974 694.5,287.59C653.633,267.206 606.737,264.042 574.349,274.986C552.633,251.518 510.189,234 463,234C415.811,234 373.367,251.518 351.651,274.986C319.263,264.042 272.367,267.206 231.5,287.59C190.633,307.974 164.014,341.479 158.79,371.183C126.274,375.452 89.824,396.251 66.005,428.359ZM127.84,337.314L126.275,337.825L127.449,336.614L128.74,335.361L127.84,337.314ZM143.398,310.512C159.642,287.98 183.372,266.896 213.646,251.795C255.712,230.813 302.946,225.122 340.988,231.343C370.657,209.644 414.649,194 463,194C511.351,194 555.343,209.644 585.013,231.343C623.054,225.122 670.288,230.813 712.354,251.795C742.628,266.896 766.358,287.98 782.602,310.512C781.491,304.119 781.95,297.426 784.113,291.016C790.985,270.645 788.288,243.415 774.769,220C761.251,196.585 739.017,180.634 717.94,176.4C702.131,173.225 689.775,160.869 686.6,145.06C682.366,123.983 666.415,101.749 643,88.231C619.585,74.712 592.355,72.015 571.984,78.887C556.706,84.041 539.827,79.519 529.173,67.416C514.968,51.279 490.037,40 463,40C435.963,40 411.032,51.279 396.827,67.416C386.173,79.519 369.294,84.041 354.016,78.887C333.645,72.015 306.415,74.712 283,88.231C259.585,101.749 243.634,123.983 239.4,145.06C236.225,160.869 223.869,173.225 208.06,176.4C186.983,180.634 164.749,196.585 151.231,220C137.712,243.415 135.015,270.645 141.887,291.016C144.05,297.426 144.509,304.119 143.398,310.512ZM798.16,337.314L797.26,335.362L798.551,336.614L799.725,337.825L798.16,337.314Z"/>
                </g>
                <g id="Face">
                    <g id="Face1" serif:id="Face" transform="matrix(0.0624815,-3.71197e-17,5.61798e-18,-0.081624,3788.14,3145.86)">
                        <path d="M827.751,694.273C813.656,883.627 655.364,1033.08 462.441,1033.08C269.518,1033.08 111.226,883.627 97.13,694.259C96.424,694.28 95.713,694.29 95,694.29C42.568,694.29 0,640.579 0,574.423C0,508.267 42.568,454.557 95,454.557C95.372,454.557 95.744,454.56 96.11,454.566L96.11,368.356C96.11,166.173 260.258,2.026 462.441,2.026C664.624,2.026 828.772,166.173 828.772,368.356L828.772,454.559L829.32,454.557C881.752,454.557 924.32,508.267 924.32,574.423C924.32,640.579 881.752,694.29 829.32,694.29C828.796,694.29 828.273,694.284 827.751,694.273Z" style="fill:rgb(255,204,168);"/>
                        <path d="M827.751,694.273C813.656,883.627 655.364,1033.08 462.441,1033.08C269.518,1033.08 111.226,883.627 97.13,694.259C96.424,694.28 95.713,694.29 95,694.29C42.568,694.29 0,640.579 0,574.423C0,508.267 42.568,454.557 95,454.557C95.372,454.557 95.744,454.56 96.11,454.566L96.11,368.356C96.11,166.173 260.258,2.026 462.441,2.026C664.624,2.026 828.772,166.173 828.772,368.356L828.772,454.559L829.32,454.557C881.752,454.557 924.32,508.267 924.32,574.423C924.32,640.579 881.752,694.29 829.32,694.29C828.796,694.29 828.273,694.284 827.751,694.273ZM828.585,652.794C807.371,652.335 789.503,669.137 787.87,691.079C775.338,859.438 633.973,991.595 462.441,991.595C290.909,991.595 149.544,859.437 137.011,691.066C135.37,669.014 117.338,652.175 96.022,652.787C95.684,652.797 95.342,652.802 95,652.802C62.243,652.802 40,615.754 40,574.423C40,533.093 62.243,496.045 95,496.045C95.171,496.045 95.341,496.046 95.509,496.049C106.221,496.216 116.55,491.919 124.181,484.121C131.813,476.324 136.11,465.677 136.11,454.566L136.11,368.356C136.11,188.645 282.729,43.513 462.441,43.513C642.153,43.513 788.772,188.645 788.772,368.356C788.772,368.356 788.772,454.559 788.772,454.559C788.772,465.59 793.007,476.167 800.542,483.952C808.077,491.737 818.291,496.089 828.926,496.047L829.381,496.045C862.104,496.091 884.32,533.118 884.32,574.423C884.32,615.754 862.077,652.802 829.32,652.802C829.075,652.802 828.83,652.799 828.585,652.794Z"/>
                    </g>
                    <g id="Eyes" transform="matrix(1,2.46519e-31,0,1,0.612691,-4.233)">
                        <g transform="matrix(0.0264151,-1.5693e-17,2.46344e-18,-0.0357914,3816.38,3133.38)">
                            <circle cx="354.331" cy="826.772" r="118.11"/>
                        </g>
                        <g transform="matrix(0.0264151,-1.5693e-17,2.46344e-18,-0.0357914,3797.75,3133.38)">
                            <circle cx="354.331" cy="826.772" r="118.11"/>
                        </g>
                    </g>
                    <g id="Mouth" transform="matrix(0.0915771,-5.44051e-17,9.96539e-18,-0.144788,3774.36,3178.88)">
                        <path d="M379.764,674C434.882,721.025 490,720.842 545.118,674" style="fill:none;stroke:black;stroke-width:25.12px;"/>
                    </g>
                </g>
            </g>
        </g>
    </g>
</svg>
