<?xml version="1.0" encoding="UTF-8" standalone="no"?>
<!DOCTYPE svg PUBLIC "-//W3C//DTD SVG 1.1//EN" "http://www.w3.org/Graphics/SVG/1.1/DTD/svg11.dtd">
<svg width="100%" height="100%" viewBox="0 0 101 114" version="1.1" xmlns="http://www.w3.org/2000/svg" xmlns:xlink="http://www.w3.org/1999/xlink" xml:space="preserve" xmlns:serif="http://www.serif.com/" style="fill-rule:evenodd;clip-rule:evenodd;stroke-linecap:round;stroke-linejoin:round;stroke-miterlimit:1.5;">
    <g id="Artboard1" transform="matrix(0.109203,0,0,0.110349,0,1.62696e-13)">
        <rect x="0" y="-0" width="924.882" height="1033.08" style="fill:none;"/>
        <g id="Harry" transform="matrix(15.8854,-6.89269e-15,1.09335e-15,-11.6021,-60174.8,36535.9)">
            <g id="Face">
                <g id="Face1" serif:id="Face" transform="matrix(0.0624815,-3.71197e-17,5.61798e-18,-0.081624,3788.14,3145.86)">
                    <path d="M827.751,694.273C813.656,883.627 655.364,1033.08 462.441,1033.08C269.518,1033.08 111.226,883.627 97.13,694.259C96.424,694.28 95.713,694.29 95,694.29C42.568,694.29 0,640.579 0,574.423C0,508.267 42.568,454.557 95,454.557C95.372,454.557 95.744,454.56 96.11,454.566L96.11,368.356C96.11,166.173 260.258,2.026 462.441,2.026C664.624,2.026 828.772,166.173 828.772,368.356L828.772,454.559L829.32,454.557C881.752,454.557 924.32,508.267 924.32,574.423C924.32,640.579 881.752,694.29 829.32,694.29C828.796,694.29 828.273,694.284 827.751,694.273Z" style="fill:rgb(255,204,168);"/>
                    <path d="M805.155,796.302C752.782,934.637 619.018,1033.08 462.441,1033.08C269.518,1033.08 111.226,883.627 97.13,694.259C96.424,694.28 95.713,694.29 95,694.29C42.568,694.29 0,640.579 0,574.423C0,508.267 42.568,454.557 95,454.557C95.372,454.557 95.744,454.56 96.11,454.566L96.11,368.356C96.11,166.173 260.258,2.026 462.441,2.026C556.638,2.026 642.579,37.656 707.503,96.203C614.642,143.033 604.181,251.746 629.034,371.818C682.537,336.186 745.381,314.639 812.539,312.165L814.237,312.029L824.388,311.707L824.391,311.723L812.539,312.165C747.945,316.157 681.977,343.451 633.02,390.399C669.474,547.555 761.162,719.565 805.155,796.302ZM829.32,454.557C881.752,454.557 924.32,508.267 924.32,574.423C924.32,640.579 881.752,694.29 829.32,694.29L829.32,454.557ZM461.197,650.604C459.301,651.235 459.046,653.533 459.218,656.3C459.39,659.066 459.99,662.302 459.804,664.809L461.197,650.604ZM463.684,650.604L465.077,664.795C464.704,659.786 467.473,651.864 463.684,650.604ZM462.422,500.121C459.597,524.838 454.457,549.099 447.08,572.558C454.133,594.375 459.345,617.094 462.442,640.554C465.608,617.185 470.785,594.537 477.748,572.758C470.406,549.463 465.193,525.17 462.422,500.121ZM465.153,383.552C466.308,382.17 466.308,379.638 466.019,376.817C465.73,373.997 465.153,370.889 465.153,368.356L465.153,383.552ZM458.862,376.817C458.574,379.638 458.574,382.17 459.729,383.552L459.729,368.356L458.862,376.817Z"/>
                </g>
                <g id="Eyes" transform="matrix(1,2.95823e-31,-1.2326e-32,1,0.612691,-4.233)">
                    <g transform="matrix(0.0264151,-1.5693e-17,2.46344e-18,-0.0357914,3816.38,3133.38)">
                        <circle cx="354.331" cy="826.772" r="118.11"/>
                    </g>
                    <g transform="matrix(0.0264151,-1.5693e-17,2.46344e-18,-0.0357914,3797.75,3133.38)">
                        <circle cx="354.331" cy="826.772" r="118.11"/>
                    </g>
                </g>
                <g id="Mouth" transform="matrix(0.0915771,-5.44051e-17,9.96539e-18,-0.144788,3774.36,3178.88)">
                    <path d="M379.764,674C434.882,721.025 490,720.842 545.118,674" style="fill:none;stroke:black;stroke-width:231.72px;"/>
                </g>
            </g>
            <g id="Face2" serif:id="Face">
                <g id="Face3" serif:id="Face" transform="matrix(0.0624815,-3.71197e-17,5.61798e-18,-0.081624,3788.14,3145.86)">
                    <path d="M827.751,694.273C813.656,883.627 655.364,1033.08 462.441,1033.08C269.518,1033.08 111.226,883.627 97.13,694.259C96.424,694.28 95.713,694.29 95,694.29C42.568,694.29 0,640.579 0,574.423C0,508.267 42.568,454.557 95,454.557C95.372,454.557 95.744,454.56 96.11,454.566L96.11,368.356C96.11,166.173 260.258,2.026 462.441,2.026C664.624,2.026 828.772,166.173 828.772,368.356L828.772,454.559L829.32,454.557C881.752,454.557 924.32,508.267 924.32,574.423C924.32,640.579 881.752,694.29 829.32,694.29C828.796,694.29 828.273,694.284 827.751,694.273Z" style="fill:rgb(255,204,168);"/>
                    <path d="M827.751,694.273C813.656,883.627 655.364,1033.08 462.441,1033.08C269.518,1033.08 111.226,883.627 97.13,694.259C96.424,694.28 95.713,694.29 95,694.29C42.568,694.29 0,640.579 0,574.423C0,508.267 42.568,454.557 95,454.557C95.372,454.557 95.744,454.56 96.11,454.566L96.11,368.356C96.11,166.173 260.258,2.026 462.441,2.026C664.624,2.026 828.772,166.173 828.772,368.356L828.772,454.559L829.32,454.557C881.752,454.557 924.32,508.267 924.32,574.423C924.32,640.579 881.752,694.29 829.32,694.29C828.796,694.29 828.273,694.284 827.751,694.273ZM828.778,643.248C802.681,642.683 780.701,663.352 778.691,690.344C766.519,853.871 629.05,982.047 462.441,982.047C295.832,982.047 158.363,853.869 146.19,690.331C144.17,663.204 121.989,642.49 95.768,643.243C95.513,643.25 95.257,643.254 95,643.254C66.742,643.254 49.206,610.078 49.206,574.423C49.206,538.768 66.742,505.593 95,505.593C95.124,505.593 95.249,505.594 95.371,505.596C108.548,505.801 121.253,500.516 130.642,490.923C140.03,481.331 145.316,468.234 145.316,454.566L145.316,368.356C145.316,193.816 287.901,53.061 462.441,53.061C636.981,53.061 779.566,193.816 779.566,368.356L779.566,454.559C779.566,482.746 801.596,505.595 828.772,505.595L829.32,505.593C857.579,505.593 875.115,538.768 875.115,574.423C875.115,610.078 857.579,643.254 829.32,643.254C829.139,643.254 828.958,643.252 828.778,643.248Z"/>
                </g>
                <g id="Eyes1" serif:id="Eyes" transform="matrix(1,2.95823e-31,-1.2326e-32,1,0.612691,-4.233)">
                    <g transform="matrix(0.0264151,-1.5693e-17,2.46344e-18,-0.0357914,3816.38,3133.38)">
                        <circle cx="354.331" cy="826.772" r="118.11"/>
                    </g>
                    <g transform="matrix(0.0264151,-1.5693e-17,2.46344e-18,-0.0357914,3797.75,3133.38)">
                        <circle cx="354.331" cy="826.772" r="118.11"/>
                    </g>
                </g>
                <g id="Mouth1" serif:id="Mouth" transform="matrix(0.0915771,-5.44051e-17,9.96539e-18,-0.144788,3774.36,3178.88)">
                    <path d="M379.764,674C434.882,721.025 490,720.842 545.118,674" style="fill:none;stroke:black;stroke-width:30.9px;"/>
                </g>
            </g>
            <g transform="matrix(0.0624815,-3.71197e-17,5.93093e-18,-0.0861708,3788.14,3149.08)">
                <path d="M271,517L80.412,517C69.095,480.006 63,440.709 63,400C63,179.234 242.234,0 463,0C683.766,0 863,179.234 863,400C863,440.709 856.905,480.006 845.588,517L463,517L367,385L271,517Z" style="fill:rgb(138,87,46);"/>
                <path d="M271,517L80.412,517C69.095,480.006 63,440.709 63,400C63,179.234 242.234,0 463,0C683.766,0 863,179.234 863,400C863,440.709 856.905,480.006 845.588,517L463,517L367,385L271,517ZM245.683,468.657L118.893,468.657C114.504,446.451 112.206,423.492 112.206,400C112.206,206.149 269.149,48.343 463,48.343C656.851,48.343 813.794,206.149 813.794,400C813.794,423.492 811.496,446.452 807.108,468.656C807.107,468.657 488.317,468.657 488.317,468.657C488.317,468.657 407.036,356.895 407.036,356.895C397.799,344.194 382.888,336.657 367,336.657C351.112,336.657 336.201,344.194 326.964,356.895L245.683,468.657Z"/>
            </g>
        </g>
    </g>
</svg>
