<?xml version="1.0" encoding="UTF-8" standalone="no"?>
<!DOCTYPE svg PUBLIC "-//W3C//DTD SVG 1.1//EN" "http://www.w3.org/Graphics/SVG/1.1/DTD/svg11.dtd">
<svg width="100%" height="100%" viewBox="0 0 926 1032" version="1.1" xmlns="http://www.w3.org/2000/svg" xmlns:xlink="http://www.w3.org/1999/xlink" xml:space="preserve" xmlns:serif="http://www.serif.com/" style="fill-rule:evenodd;clip-rule:evenodd;stroke-linecap:round;stroke-linejoin:round;stroke-miterlimit:1.5;">
    <g id="Artboard1" transform="matrix(1.00121,0,0,0.998952,0,1.47283e-12)">
        <rect x="0" y="-0" width="924.882" height="1033.08" style="fill:none;"/>
        <clipPath id="_clip1">
            <rect x="0" y="-0" width="924.882" height="1033.08"/>
        </clipPath>
        <g clip-path="url(#_clip1)">
            <g id="Oscar" transform="matrix(15.9854,-7.02473e-15,1.10024e-15,-11.8244,-60555,37235.8)">
                <g id="Face">
                    <g id="Face1" serif:id="Face" transform="matrix(0.0624815,-3.71197e-17,5.61798e-18,-0.081624,3788.14,3145.86)">
                        <path d="M827.751,694.273C813.656,883.627 655.364,1033.08 462.441,1033.08C269.518,1033.08 111.226,883.627 97.13,694.259C96.424,694.28 95.713,694.29 95,694.29C42.568,694.29 0,640.579 0,574.423C0,508.267 42.568,454.557 95,454.557C95.372,454.557 95.744,454.56 96.11,454.566L96.11,368.356C96.11,166.173 260.258,2.026 462.441,2.026C664.624,2.026 828.772,166.173 828.772,368.356L828.772,454.559L829.32,454.557C881.752,454.557 924.32,508.267 924.32,574.423C924.32,640.579 881.752,694.29 829.32,694.29C828.796,694.29 828.273,694.284 827.751,694.273Z" style="fill:rgb(255,204,168);"/>
                        <path d="M827.751,694.273C813.656,883.627 655.364,1033.08 462.441,1033.08C269.518,1033.08 111.226,883.627 97.13,694.259C96.424,694.28 95.713,694.29 95,694.29C42.568,694.29 0,640.579 0,574.423C0,508.267 42.568,454.557 95,454.557C95.372,454.557 95.744,454.56 96.11,454.566L96.11,368.356C96.11,166.173 260.258,2.026 462.441,2.026C664.624,2.026 828.772,166.173 828.772,368.356L828.772,454.559L829.32,454.557C881.752,454.557 924.32,508.267 924.32,574.423C924.32,640.579 881.752,694.29 829.32,694.29C828.796,694.29 828.273,694.284 827.751,694.273ZM828.585,652.794C807.371,652.335 789.503,669.137 787.87,691.079C775.338,859.438 633.973,991.595 462.441,991.595C290.909,991.595 149.544,859.437 137.011,691.066C135.37,669.014 117.338,652.175 96.022,652.787C95.684,652.797 95.342,652.802 95,652.802C62.243,652.802 40,615.754 40,574.423C40,533.093 62.243,496.045 95,496.045C95.171,496.045 95.341,496.046 95.509,496.049C106.221,496.216 116.55,491.919 124.181,484.121C131.813,476.324 136.11,465.677 136.11,454.566L136.11,368.356C136.11,188.645 282.729,43.513 462.441,43.513C642.153,43.513 788.772,188.645 788.772,368.356C788.772,368.356 788.772,454.559 788.772,454.559C788.772,465.59 793.007,476.167 800.542,483.952C808.077,491.737 818.291,496.089 828.926,496.047L829.381,496.045C862.104,496.091 884.32,533.118 884.32,574.423C884.32,615.754 862.077,652.802 829.32,652.802C829.075,652.802 828.83,652.799 828.585,652.794Z"/>
                    </g>
                    <g id="Eyes" transform="matrix(1,2.95823e-31,-1.2326e-32,1,0.612691,-4.233)">
                        <g transform="matrix(0.0264151,-1.5693e-17,2.46344e-18,-0.0357914,3816.38,3133.38)">
                            <circle cx="354.331" cy="826.772" r="118.11"/>
                        </g>
                        <g transform="matrix(0.0264151,-1.5693e-17,2.46344e-18,-0.0357914,3797.75,3133.38)">
                            <circle cx="354.331" cy="826.772" r="118.11"/>
                        </g>
                    </g>
                    <g id="Mouth" transform="matrix(0.0915771,-5.44051e-17,9.96539e-18,-0.144788,3774.36,3178.88)">
                        <path d="M379.764,674C434.882,721.025 490,720.842 545.118,674" style="fill:none;stroke:black;stroke-width:25.12px;"/>
                    </g>
                </g>
                <g id="Face2" serif:id="Face">
                    <g id="Face3" serif:id="Face" transform="matrix(0.0624815,-3.71197e-17,5.61798e-18,-0.081624,3788.14,3145.86)">
                        <path d="M827.751,694.273C813.656,883.627 655.364,1033.08 462.441,1033.08C269.518,1033.08 111.226,883.627 97.13,694.259C96.424,694.28 95.713,694.29 95,694.29C42.568,694.29 0,640.579 0,574.423C0,508.267 42.568,454.557 95,454.557C95.372,454.557 95.744,454.56 96.11,454.566L96.11,368.356C96.11,166.173 260.258,2.026 462.441,2.026C664.624,2.026 828.772,166.173 828.772,368.356L828.772,454.559L829.32,454.557C881.752,454.557 924.32,508.267 924.32,574.423C924.32,640.579 881.752,694.29 829.32,694.29C828.796,694.29 828.273,694.284 827.751,694.273Z" style="fill:rgb(255,204,168);"/>
                        <path d="M827.751,694.273C813.656,883.627 655.364,1033.08 462.441,1033.08C269.518,1033.08 111.226,883.627 97.13,694.259C96.424,694.28 95.713,694.29 95,694.29C42.568,694.29 0,640.579 0,574.423C0,508.267 42.568,454.557 95,454.557C95.372,454.557 95.744,454.56 96.11,454.566L96.11,368.356C96.11,166.173 260.258,2.026 462.441,2.026C664.624,2.026 828.772,166.173 828.772,368.356L828.772,454.559L829.32,454.557C881.752,454.557 924.32,508.267 924.32,574.423C924.32,640.579 881.752,694.29 829.32,694.29C828.796,694.29 828.273,694.284 827.751,694.273ZM828.585,652.794C807.371,652.335 789.503,669.137 787.87,691.079C775.338,859.438 633.973,991.595 462.441,991.595C290.909,991.595 149.544,859.437 137.011,691.066C135.37,669.014 117.338,652.175 96.022,652.787C95.684,652.797 95.342,652.802 95,652.802C62.243,652.802 40,615.754 40,574.423C40,533.093 62.243,496.045 95,496.045C95.171,496.045 95.341,496.046 95.509,496.049C106.221,496.216 116.55,491.919 124.181,484.121C131.813,476.324 136.11,465.677 136.11,454.566L136.11,368.356C136.11,188.645 282.729,43.513 462.441,43.513C642.153,43.513 788.772,188.645 788.772,368.356C788.772,368.356 788.772,454.559 788.772,454.559C788.772,465.59 793.007,476.167 800.542,483.952C808.077,491.737 818.291,496.089 828.926,496.047L829.381,496.045C862.104,496.091 884.32,533.118 884.32,574.423C884.32,615.754 862.077,652.802 829.32,652.802C829.075,652.802 828.83,652.799 828.585,652.794Z"/>
                    </g>
                    <g id="Eyes1" serif:id="Eyes" transform="matrix(1,2.95823e-31,-1.2326e-32,1,0.612691,-4.233)">
                        <g transform="matrix(0.0264151,-1.5693e-17,2.46344e-18,-0.0357914,3816.38,3133.38)">
                            <circle cx="354.331" cy="826.772" r="118.11"/>
                        </g>
                        <g transform="matrix(0.0264151,-1.5693e-17,2.46344e-18,-0.0357914,3797.75,3133.38)">
                            <circle cx="354.331" cy="826.772" r="118.11"/>
                        </g>
                    </g>
                    <g id="Mouth1" serif:id="Mouth" transform="matrix(0.0915771,-5.44051e-17,9.96539e-18,-0.144788,3774.36,3178.88)">
                        <path d="M379.764,674C434.882,721.025 490,720.842 545.118,674" style="fill:none;stroke:black;stroke-width:25.12px;"/>
                    </g>
                </g>
                <g transform="matrix(0.0624815,-3.71197e-17,5.82694e-18,-0.08466,3788.14,3149.08)">
                    <path d="M271,517L80.412,517C69.095,480.006 63,440.709 63,400C63,179.234 242.234,0 463,0C683.766,0 863,179.234 863,400C863,440.709 856.905,480.006 845.588,517L463,517L367,385L271,517Z" style="fill:rgb(255,172,52);"/>
                    <path d="M271,517L80.412,517C69.095,480.006 63,440.709 63,400C63,179.234 242.234,0 463,0C683.766,0 863,179.234 863,400C863,440.709 856.905,480.006 845.588,517L463,517L367,385L271,517ZM250.631,477L111.261,477C105.85,452.195 103,426.428 103,400C103,201.311 264.311,40 463,40C661.689,40 823,201.311 823,400C823,426.428 820.15,452.195 814.739,477C814.739,477 558.359,477 483.369,477C483.369,477 399.349,361.473 399.349,361.473C391.822,351.123 379.797,345 367,345C354.203,345 342.178,351.123 334.651,361.473L250.631,477L250.631,477Z"/>
                </g>
            </g>
        </g>
    </g>
</svg>
