<?xml version="1.0" encoding="UTF-8" standalone="no"?>
<!DOCTYPE svg PUBLIC "-//W3C//DTD SVG 1.1//EN" "http://www.w3.org/Graphics/SVG/1.1/DTD/svg11.dtd">
<svg width="100%" height="100%" viewBox="0 0 926 1032" version="1.1" xmlns="http://www.w3.org/2000/svg" xmlns:xlink="http://www.w3.org/1999/xlink" xml:space="preserve" xmlns:serif="http://www.serif.com/" style="fill-rule:evenodd;clip-rule:evenodd;stroke-linecap:round;stroke-linejoin:round;stroke-miterlimit:1.5;">
    <g id="Artboard1" transform="matrix(1.00121,0,0,0.998952,0,1.47283e-12)">
        <rect x="0" y="-0" width="924.882" height="1033.08" style="fill:none;"/>
        <clipPath id="_clip1">
            <rect x="0" y="-0" width="924.882" height="1033.08"/>
        </clipPath>
        <g clip-path="url(#_clip1)">
            <g id="Male" transform="matrix(15.9854,-7.02473e-15,1.10024e-15,-11.8244,-60555,37235.8)">
                <g id="Face" transform="matrix(0.0624815,-3.71197e-17,5.61798e-18,-0.081624,3788.14,3145.86)">
                    <path d="M827.751,694.273C813.656,883.627 655.364,1033.08 462.441,1033.08C269.518,1033.08 111.226,883.627 97.13,694.259C96.424,694.28 95.713,694.29 95,694.29C42.568,694.29 0,640.579 0,574.423C0,508.267 42.568,454.557 95,454.557C95.372,454.557 95.744,454.56 96.11,454.566L96.11,368.356C96.11,166.173 260.258,2.026 462.441,2.026C664.624,2.026 828.772,166.173 828.772,368.356L828.772,454.559L829.32,454.557C881.752,454.557 924.32,508.267 924.32,574.423C924.32,640.579 881.752,694.29 829.32,694.29C828.796,694.29 828.273,694.284 827.751,694.273Z" style="fill:rgb(255,204,168);"/>
                    <path d="M827.751,694.273C813.656,883.627 655.364,1033.08 462.441,1033.08C269.518,1033.08 111.226,883.627 97.13,694.259C96.424,694.28 95.713,694.29 95,694.29C42.568,694.29 0,640.579 0,574.423C0,508.267 42.568,454.557 95,454.557C95.372,454.557 95.744,454.56 96.11,454.566L96.11,368.356C96.11,166.173 260.258,2.026 462.441,2.026C664.624,2.026 828.772,166.173 828.772,368.356L828.772,454.559L829.32,454.557C881.752,454.557 924.32,508.267 924.32,574.423C924.32,640.579 881.752,694.29 829.32,694.29C828.796,694.29 828.273,694.284 827.751,694.273ZM828.585,652.794C807.371,652.335 789.503,669.137 787.87,691.079C775.338,859.438 633.973,991.595 462.441,991.595C290.909,991.595 149.544,859.437 137.011,691.066C135.37,669.014 117.338,652.175 96.022,652.787C95.684,652.797 95.342,652.802 95,652.802C62.243,652.802 40,615.754 40,574.423C40,533.093 62.243,496.045 95,496.045C95.171,496.045 95.341,496.046 95.509,496.049C106.221,496.216 116.55,491.919 124.181,484.121C131.813,476.324 136.11,465.677 136.11,454.566L136.11,368.356C136.11,188.645 282.729,43.513 462.441,43.513C642.153,43.513 788.772,188.645 788.772,368.356C788.772,368.356 788.772,454.559 788.772,454.559C788.772,465.59 793.007,476.167 800.542,483.952C808.077,491.737 818.291,496.089 828.926,496.047L829.381,496.045C862.104,496.091 884.32,533.118 884.32,574.423C884.32,615.754 862.077,652.802 829.32,652.802C829.075,652.802 828.83,652.799 828.585,652.794Z"/>
                </g>
                <g id="Eyes" transform="matrix(1,2.95823e-31,0,1,0.612691,-4.233)">
                    <g transform="matrix(0.0264151,-1.5693e-17,2.46344e-18,-0.0357914,3816.38,3133.38)">
                        <circle cx="354.331" cy="826.772" r="118.11"/>
                    </g>
                    <g transform="matrix(0.0264151,-1.5693e-17,2.46344e-18,-0.0357914,3797.75,3133.38)">
                        <circle cx="354.331" cy="826.772" r="118.11"/>
                    </g>
                </g>
                <g id="Mouth" transform="matrix(0.0915771,-5.44051e-17,9.96539e-18,-0.144788,3774.36,3178.88)">
                    <path d="M379.764,674C434.882,721.025 490,720.842 545.118,674" style="fill:none;stroke:black;stroke-width:25.12px;"/>
                </g>
                <g transform="matrix(0.0624815,-3.71197e-17,5.82694e-18,-0.08466,3788.14,3149.08)">
                    <path d="M99.226,497.395C95.373,479.307 96.095,461.714 100.872,447.086C79.026,428.412 63,395.973 63,360.395C63,324.817 79.026,292.378 100.872,273.705C92.403,247.774 96.679,212.522 116.59,181.71C136.501,150.899 168.534,129.965 197.904,123.552C205.082,97.312 228.513,68.693 263,50.904C297.487,33.115 336.944,29.295 365.968,36.861C386.87,17.343 423.178,3.026 463,3.026C502.822,3.026 539.13,17.343 560.032,36.861C589.056,29.295 628.513,33.115 663,50.904C697.487,68.693 720.918,97.312 728.096,123.552C757.466,129.965 789.499,150.899 809.41,181.71C829.321,212.522 833.597,247.774 825.128,273.705C846.974,292.378 863,324.817 863,360.395C863,395.973 846.974,428.412 825.128,447.086C829.905,461.714 830.627,479.307 826.774,497.395C823.798,483.416 818.089,469.141 809.41,455.71C789.499,424.899 757.466,403.965 728.096,397.552C720.918,371.312 697.487,342.693 663,324.904C628.513,307.115 589.056,303.295 560.032,310.861C539.13,291.343 502.822,277.026 463,277.026C423.178,277.026 386.87,291.343 365.968,310.861C336.944,303.295 297.487,307.115 263,324.904C228.513,342.693 205.082,371.312 197.904,397.552C168.534,403.965 136.501,424.899 116.59,455.71C107.911,469.141 102.202,483.416 99.226,497.395Z" style="fill:rgb(214,211,209);"/>
                    <path d="M99.226,497.395C95.373,479.307 96.095,461.714 100.872,447.086C79.026,428.412 63,395.973 63,360.395C63,324.817 79.026,292.378 100.872,273.705C92.403,247.774 96.679,212.522 116.59,181.71C136.501,150.899 168.534,129.965 197.904,123.552C205.082,97.312 228.513,68.693 263,50.904C297.487,33.115 336.944,29.295 365.968,36.861C386.87,17.343 423.178,3.026 463,3.026C502.822,3.026 539.13,17.343 560.032,36.861C589.056,29.295 628.513,33.115 663,50.904C697.487,68.693 720.918,97.312 728.096,123.552C757.466,129.965 789.499,150.899 809.41,181.71C829.321,212.522 833.597,247.774 825.128,273.705C846.974,292.378 863,324.817 863,360.395C863,395.973 846.974,428.412 825.128,447.086C829.905,461.714 830.627,479.307 826.774,497.395C823.798,483.416 818.089,469.141 809.41,455.71C789.499,424.899 757.466,403.965 728.096,397.552C720.918,371.312 697.487,342.693 663,324.904C628.513,307.115 589.056,303.295 560.032,310.861C539.13,291.343 502.822,277.026 463,277.026C423.178,277.026 386.87,291.343 365.968,310.861C336.944,303.295 297.487,307.115 263,324.904C228.513,342.693 205.082,371.312 197.904,397.552C168.534,403.965 136.501,424.899 116.59,455.71C107.911,469.141 102.202,483.416 99.226,497.395ZM813.168,399.109C796.372,383.945 777.271,372.371 758.187,365.002C744.078,336.609 717.711,308.117 681.337,289.355C645.073,270.649 604.435,264.537 570.543,268.379C543.197,249.994 504.73,237.026 463,237.026C421.27,237.026 382.803,249.994 355.456,268.379C321.565,264.537 280.927,270.649 244.663,289.355C208.289,308.117 181.922,336.609 167.812,365.003C148.728,372.371 129.628,383.945 112.832,399.109C106.691,388.025 103,374.544 103,360.395C103,337.404 112.745,316.178 126.862,304.11C139.172,293.588 143.923,276.681 138.896,261.287C133.546,244.906 137.607,222.885 150.185,203.421C164.024,182.005 186.024,167.089 206.437,162.631C220.981,159.455 232.558,148.466 236.486,134.107C241.302,116.503 258.201,98.387 281.337,86.453C306.336,73.558 334.839,70.083 355.878,75.568C369.141,79.025 383.251,75.451 393.268,66.097C408.208,52.146 434.537,43.026 463,43.026C491.463,43.026 517.792,52.146 532.732,66.097C542.749,75.451 556.859,79.025 570.122,75.568C591.161,70.083 619.664,73.558 644.663,86.453C667.799,98.387 684.698,116.503 689.514,134.107C693.442,148.466 705.019,159.455 719.563,162.631C739.976,167.089 761.976,182.005 775.815,203.421C788.393,222.885 792.454,244.906 787.104,261.287C782.077,276.681 786.828,293.588 799.138,304.11C813.255,316.178 823,337.404 823,360.395C823,374.544 819.309,388.025 813.168,399.109Z"/>
                </g>
            </g>
        </g>
    </g>
</svg>
